<?xml version="1.0" standalone="no"?>
<!DOCTYPE svg PUBLIC "-//W3C//DTD SVG 20010904//EN"
 "http://www.w3.org/TR/2001/REC-SVG-20010904/DTD/svg10.dtd">
<svg version="1.0" xmlns="http://www.w3.org/2000/svg"
 width="500.000000pt" height="356.000000pt" viewBox="0 0 500.000000 356.000000"
 preserveAspectRatio="xMidYMid meet">
<metadata>
Created by potrace 1.16, written by Peter Selinger 2001-2019
</metadata>
<g transform="translate(0.000000,356.000000) scale(0.100000,-0.100000)"
fill="#000000" stroke="none">
<path d="M2954 3389 c-72 -29 -140 -83 -213 -172 l-64 -77 -146 0 c-226 -1
-457 -17 -592 -41 -161 -28 -218 -23 -329 29 -188 87 -460 172 -554 172 -22 0
-65 -11 -93 -25 -45 -20 -60 -36 -102 -99 -137 -210 -171 -424 -107 -671 40
-153 36 -200 -25 -330 -96 -204 -159 -439 -159 -595 0 -38 -5 -73 -12 -82 -9
-11 -48 -19 -135 -28 -68 -7 -147 -18 -175 -26 l-53 -13 50 5 c28 2 106 7 175
10 97 5 129 3 142 -7 20 -17 70 -226 75 -320 5 -75 2 -80 -72 -102 l-50 -16
82 0 c45 -1 89 -4 98 -7 9 -4 25 -24 36 -45 11 -22 20 -39 22 -39 1 0 2 34 2
75 0 68 -2 75 -20 75 -11 0 -25 4 -31 8 -28 19 -74 200 -74 292 0 78 10 90 78
91 l57 1 -65 10 c-76 10 -90 24 -90 87 1 157 34 342 90 512 44 134 83 214 151
316 l49 72 -47 3 c-47 3 -48 4 -67 53 -27 69 -34 278 -13 395 26 153 98 294
164 325 30 15 57 17 167 13 121 -5 141 -8 257 -47 69 -23 188 -73 264 -110
l140 -68 55 13 c67 15 317 32 578 38 l192 5 0 -57 c0 -31 -9 -83 -20 -115 -11
-32 -29 -102 -40 -157 -20 -93 -21 -102 -6 -159 20 -79 48 -133 97 -186 45
-49 135 -93 206 -101 52 -6 213 25 266 51 16 8 52 15 80 15 46 0 52 -3 104
-55 30 -30 80 -67 111 -82 52 -26 65 -28 162 -26 l105 2 28 -60 c52 -109 163
-210 264 -240 53 -15 109 -1 190 47 44 27 66 34 108 34 l53 0 16 -47 c25 -80
46 -211 46 -294 0 -84 -8 -97 -62 -100 -13 -1 -5 -5 17 -8 l40 -6 -2 -155 c-1
-190 -7 -213 -54 -221 -19 -4 -28 -7 -21 -8 8 -1 12 -24 12 -79 0 -71 -4 -86
-41 -163 -53 -111 -62 -119 -118 -119 l-46 0 3 -66 4 -67 -54 -54 c-179 -183
-501 -311 -929 -369 -156 -21 -690 -30 -902 -15 -466 34 -787 128 -1060 312
-49 32 -86 55 -83 50 12 -18 185 -131 276 -179 307 -163 707 -236 1290 -237
259 0 313 3 445 23 401 62 621 140 833 297 55 40 135 107 178 149 l77 76 76 0
c47 -1 86 -6 101 -15 14 -8 30 -14 35 -14 6 0 -17 14 -50 31 -33 17 -63 36
-67 42 -21 32 -7 106 43 222 28 66 56 125 62 133 9 11 37 13 130 9 64 -3 116
-4 114 -2 -2 2 -46 11 -97 20 -52 9 -101 21 -109 27 -11 9 -12 32 -7 112 15
219 21 266 36 275 8 5 92 10 185 11 120 1 158 4 130 10 -22 4 -99 9 -172 9
-100 0 -136 4 -146 15 -8 8 -22 65 -32 127 -9 62 -30 154 -46 204 -42 132 -40
176 16 272 51 88 87 186 105 288 11 61 10 78 -4 127 -20 69 -72 126 -138 151
l-45 17 -16 118 c-38 269 -120 440 -235 488 -40 17 -126 6 -242 -29 -74 -23
-225 -92 -287 -131 -34 -22 -55 -27 -102 -27 -33 0 -61 5 -63 10 -2 6 -34 41
-71 79 -118 118 -211 151 -313 110z m1146 -79 c24 -24 62 -99 83 -165 22 -66
47 -226 47 -296 l0 -57 -72 -7 c-97 -9 -216 -33 -252 -51 -16 -8 -53 -14 -82
-14 -49 0 -57 3 -97 43 -54 52 -120 86 -198 100 -45 9 -59 16 -59 29 0 10 -11
47 -25 84 -15 40 -25 87 -25 118 l0 52 108 52 c90 44 265 108 337 125 11 3 64
5 118 6 84 1 100 -2 117 -19z"/>
<path d="M1477 1380 c-14 -11 -33 -40 -42 -64 -14 -37 -15 -51 -5 -80 10 -33
60 -86 80 -86 18 0 66 59 78 96 10 32 8 44 -8 82 -20 44 -44 71 -66 72 -6 0
-23 -9 -37 -20z"/>
<path d="M3426 1379 c-33 -26 -56 -69 -56 -104 0 -38 27 -91 57 -110 24 -16
26 -16 50 7 54 49 66 119 32 174 -30 50 -51 58 -83 33z"/>
<path d="M835 719 l0 -69 61 0 c47 0 68 -5 88 -21 l26 -20 0 60 0 61 -61 0
c-54 0 -63 3 -87 29 l-27 30 0 -70z"/>
</g>
</svg>
