<?xml version="1.0" standalone="no"?>
<!DOCTYPE svg PUBLIC "-//W3C//DTD SVG 20010904//EN"
 "http://www.w3.org/TR/2001/REC-SVG-20010904/DTD/svg10.dtd">
<svg version="1.0" xmlns="http://www.w3.org/2000/svg"
 width="300.000000pt" height="214.000000pt" viewBox="0 0 300.000000 214.000000"
 preserveAspectRatio="xMidYMid meet">
<metadata>
Created by potrace 1.10, written by Peter Selinger 2001-2011
</metadata>
<g transform="translate(0.000000,214.000000) scale(0.100000,-0.100000)"
fill="#000000" stroke="none">
<path d="M1735 2056 c-32 -14 -72 -46 -106 -85 l-56 -61 -153 0 c-87 0 -198
-7 -258 -16 l-105 -15 -76 34 c-144 66 -237 91 -338 91 -87 1 -93 0 -121 -27
-43 -41 -90 -140 -108 -227 -18 -85 -15 -169 11 -272 l17 -67 -42 -98 c-50
-116 -75 -210 -85 -315 l-7 -77 -57 -6 c-155 -17 -201 -35 -187 -70 5 -14 23
-16 128 -13 l123 3 22 -85 c11 -47 19 -88 17 -92 -2 -3 -33 -16 -69 -28 -36
-12 -72 -29 -81 -37 -14 -14 -14 -17 0 -31 13 -14 22 -14 86 0 39 9 79 14 89
11 22 -6 95 -128 88 -147 -3 -8 -36 -32 -74 -54 -79 -47 -118 -84 -110 -106
10 -25 44 -19 102 18 72 46 131 76 150 76 9 0 42 -20 73 -44 150 -114 336
-193 524 -220 434 -63 823 -37 1083 71 79 33 176 98 250 168 33 31 67 57 76
58 8 0 54 -16 101 -36 94 -40 125 -45 134 -22 10 24 -14 44 -108 91 -48 24
-88 48 -88 53 0 14 52 134 62 146 5 6 57 10 115 10 77 0 107 4 110 13 6 16
-54 41 -137 56 l-65 12 3 75 c2 41 5 81 8 90 6 23 59 31 147 23 105 -9 151 18
87 51 -20 10 -58 15 -123 15 -64 0 -98 4 -105 13 -5 6 -13 37 -16 67 -4 30
-16 85 -27 121 l-21 66 30 54 c64 113 84 264 45 331 -10 18 -37 43 -58 55 -39
22 -40 23 -51 105 -24 162 -80 260 -159 278 -74 17 -245 -31 -344 -97 l-34
-22 -63 59 c-91 84 -157 99 -249 56z m697 -103 c30 -34 50 -87 63 -162 8 -41
11 -79 9 -83 -3 -4 -25 -8 -50 -8 -48 0 -132 -17 -150 -31 -6 -5 -21 3 -38 20
-27 28 -78 54 -126 65 -20 4 -28 16 -41 56 l-16 51 51 26 c74 38 205 81 247
82 22 1 42 -6 51 -16z m-1687 -53 c42 -11 126 -43 186 -71 99 -47 112 -51 156
-45 153 22 433 35 433 21 0 -3 -9 -38 -20 -77 -80 -290 88 -451 370 -354 37
12 39 12 65 -16 46 -48 102 -71 172 -71 56 0 62 -2 67 -22 3 -13 29 -48 56
-79 84 -91 163 -105 272 -50 l47 24 15 -52 c8 -29 17 -72 20 -96 7 -48 0 -54
-86 -66 -50 -8 -74 -26 -64 -52 5 -13 19 -15 79 -13 l72 4 -2 -60 c-4 -99 -7
-105 -57 -105 -69 0 -70 -34 -3 -59 33 -13 31 -25 -12 -106 -25 -46 -29 -50
-61 -48 -79 6 -102 -18 -55 -55 14 -11 25 -24 25 -30 0 -21 -101 -101 -177
-140 -162 -83 -336 -120 -608 -129 -338 -11 -611 31 -796 121 -124 61 -235
146 -190 146 20 0 60 41 54 56 -6 16 -39 16 -106 -1 -33 -9 -57 10 -94 73 -28
48 -26 54 30 72 26 8 37 17 37 31 0 20 -2 20 -84 23 -40 1 -40 1 -58 61 -29
93 -26 99 57 105 56 4 70 8 73 22 4 21 -27 35 -102 46 l-51 8 1 69 c3 131 65
314 147 434 21 29 37 61 37 71 0 22 -23 32 -55 24 -20 -5 -25 0 -35 31 -26 80
-8 218 41 303 44 78 74 85 204 52z"/>
<path d="M867 869 c-42 -24 -59 -116 -32 -168 16 -32 33 -41 76 -41 55 0 89
66 75 145 -11 58 -72 91 -119 64z"/>
<path d="M2040 867 c-33 -17 -50 -52 -50 -108 0 -65 28 -99 81 -99 34 0 42 5
59 33 22 36 26 102 9 141 -9 18 -56 48 -73 46 -1 0 -12 -6 -26 -13z"/>
<path d="M1445 666 c-16 -7 -39 -23 -49 -35 -24 -26 -26 -82 -5 -107 20 -25
72 -44 120 -44 145 0 179 151 43 189 -50 14 -72 13 -109 -3z m116 -67 c25 -25
21 -40 -16 -58 -41 -20 -99 -4 -103 28 -7 50 78 71 119 30z"/>
</g>
</svg>
